<svg xmlns="http://www.w3.org/2000/svg" viewBox="0 0 396 612" role="img" aria-label="Ornement de couverture">
  <g fill="currentColor" stroke="none" fill-rule="evenodd">
    <path d="M 41.086 56.337 C 41.086 57.167 41.092 58.092 41.092 58.833 L 41.092 553.236 C 41.092 553.714 41.082 554.193 41.099 554.669 C 41.088 554.972 41.082 555.433 41.089 555.71 C 41.378 555.721 41.588 555.707 41.735 555.707 C 146.011 555.712 250.285 555.71 354.561 555.701 C 354.715 555.714 354.97 555.713 355.182 555.714 C 355.191 555.559 355.178 555.277 355.178 555.131 C 355.184 389.056 355.184 222.981 355.176 56.906 C 355.185 56.772 355.176 56.761 355.185 56.337 L 354.385 56.337 C 250.164 56.336 145.942 56.338 41.72 56.347 C 41.573 56.347 41.744 56.347 41.086 56.337"/>
    <path d="M 36.917 52.567 C 37.122 52.449 37.371 52.274 37.643 52.156 C 38.125 51.946 38.679 51.853 39.104 51.564 C 41.339 50.052 43.791 50.007 46.297 50.49 C 47.597 50.74 48.862 51.156 49.945 51.993 C 50.852 52.694 51.953 53.001 53.046 53.151 C 55.154 53.44 57.284 53.507 59.335 52.764 C 59.925 52.55 60.501 52.256 61.025 51.91 C 62.104 51.195 63.168 51.048 64.289 51.782 C 65.688 52.698 67.274 52.994 68.873 53.102 C 70.331 53.202 72.592 52.68 73.908 52.041 C 74.646 51.684 75.393 51.345 76.145 51.017 C 77.12 50.59 78.245 50.595 79.189 51.089 C 80.111 51.57 81.076 51.965 82.018 52.411 C 83.84 53.273 85.761 53.225 87.621 52.76 C 89.15 52.379 90.596 51.667 92.079 51.102 C 92.474 50.952 92.858 50.755 93.266 50.671 C 95.607 50.187 97.88 50.339 100.08 51.362 C 102.216 52.356 104.434 52.993 106.834 52.937 C 108.424 52.9 110.008 52.954 111.591 52.666 C 112.591 52.484 113.557 52.251 114.482 51.832 C 114.722 51.723 114.98 51.652 115.22 51.541 C 115.947 51.206 116.638 51.23 117.351 51.623 C 118.381 52.191 119.502 52.537 120.655 52.733 C 121.486 52.874 122.335 52.937 123.179 52.964 C 125.046 53.024 126.762 52.36 128.304 51.448 C 130.244 50.3 132.124 50.423 134.083 51.169 C 134.724 51.413 135.323 51.764 135.955 52.041 C 137.213 52.592 140.459 53.285 141.814 53.306 C 142.231 53.312 142.649 53.301 143.065 53.311 C 144.665 53.346 146.246 52.983 147.631 52.183 C 148.186 51.861 148.794 51.637 149.374 51.358 C 150.574 50.78 151.718 50.931 152.869 51.54 C 153.757 52.011 154.679 52.418 155.602 52.818 C 157.305 53.555 159.097 53.586 160.908 53.437 C 162.631 53.296 164.202 52.669 165.743 51.944 C 165.886 51.876 166.01 51.771 166.152 51.698 C 168.064 50.708 168.418 50.627 170.559 50.694 C 170.877 50.704 171.201 50.776 171.509 50.727 C 172.854 50.515 174.01 51.022 175.139 51.637 C 177.27 52.798 179.559 53.403 181.969 53.55 C 182.915 53.608 183.867 53.587 184.816 53.592 C 186.734 53.601 188.656 53.119 190.225 52.015 C 192.554 50.376 194.978 50.662 197.267 52.013 C 198.145 52.531 199.059 52.906 199.997 53.28 C 201.734 53.972 203.446 53.791 205.128 53.203 C 206.166 52.84 207.199 52.46 208.133 51.788 C 209.169 51.043 210.374 50.662 211.728 50.8 C 212.699 50.898 213.681 50.864 214.653 50.812 C 215.56 50.762 216.409 50.895 217.183 51.372 C 217.635 51.65 218.123 51.874 218.552 52.182 C 220.073 53.269 221.781 53.713 223.624 53.81 C 224.953 53.881 226.263 53.934 227.566 53.545 C 228.334 53.316 229.081 53.104 229.737 52.606 C 230.109 52.322 230.576 52.164 231 51.947 C 231.966 51.453 232.883 51.679 233.689 52.262 C 234.714 53.004 235.821 53.402 237.073 53.444 C 237.763 53.467 238.453 53.498 239.141 53.528 C 240.218 53.573 241.22 53.407 242.199 52.868 C 243.213 52.309 244.327 51.933 245.39 51.46 C 246.062 51.16 246.761 51.222 247.422 51.383 C 248.134 51.558 248.841 51.824 249.492 52.161 C 251.424 53.161 253.438 53.801 255.759 53.615 C 256.23 53.577 256.69 53.451 257.137 53.293 C 258.387 52.852 259.652 52.44 260.872 51.926 C 263.05 51.007 265.239 50.717 267.539 51.427 C 268.327 51.671 269.062 51.963 269.811 52.34 C 270.89 52.885 272.048 53.272 273.232 53.517 C 276.472 54.186 279.708 53.927 282.906 53.114 C 283.27 53.022 283.844 52.805 284.164 52.606 C 285.045 52.056 285.887 52.002 286.791 52.428 C 288.129 53.058 289.558 53.449 290.997 53.762 C 291.948 53.97 292.937 53.936 293.875 53.676 C 295.232 53.3 296.583 52.936 297.828 52.158 C 299.992 50.803 302.287 50.905 304.457 52.209 C 305.906 53.08 307.501 53.403 309.101 53.767 C 310.638 54.117 312.04 53.62 313.412 53.043 C 314.415 52.622 315.372 52.089 316.366 51.646 C 316.744 51.477 317.396 51.323 317.809 51.287 C 319.016 51.176 320.236 51.032 321.434 51.123 C 322.352 51.194 323.281 51.592 324.135 51.991 C 325.631 52.69 327.146 53.315 328.766 53.637 C 330.908 54.064 333.07 54.228 335.251 53.979 C 336.268 53.863 337.212 53.528 338.115 53.068 C 338.684 52.78 339.235 52.462 339.805 52.176 C 342.011 51.066 344.188 51.073 346.291 52.421 C 347.1 52.939 347.935 53.356 348.838 53.7 C 351.308 54.637 353.622 54.276 355.871 53.051 C 356.71 52.594 357.535 52.115 358.378 51.664 C 358.842 51.415 359.326 51.227 359.877 51.298 C 360.301 51.353 360.598 51.74 360.543 52.164 C 360.466 52.751 360.365 53.34 360.197 53.906 C 359.788 55.278 359.352 56.643 358.883 57.995 C 358.225 59.89 358.044 61.81 358.404 63.788 C 358.627 65.004 359.157 66.101 359.628 67.224 C 359.77 67.565 359.896 67.917 360.079 68.237 C 360.783 69.464 360.572 70.686 360.092 71.912 C 359.976 72.207 359.878 72.522 359.706 72.784 C 358.959 73.917 358.682 75.197 358.35 76.49 C 357.944 78.062 358.114 79.538 358.615 81.013 C 359.023 82.217 359.5 83.396 359.955 84.584 C 360.986 87.275 360.941 89.921 359.702 92.604 C 359.025 94.068 358.536 95.618 358.217 97.198 C 357.804 99.254 357.67 101.359 357.965 103.464 C 358.193 105.094 358.484 106.707 359.234 108.201 C 359.568 108.869 359.478 109.577 359.163 110.204 C 358.44 111.637 358.243 113.207 357.911 114.739 C 357.799 115.249 357.786 115.776 357.846 116.294 C 358.03 117.859 358.392 119.413 359.244 120.739 C 360.754 123.086 360.632 125.431 359.526 127.848 C 359.394 128.137 359.286 128.442 359.117 128.71 C 358.243 130.099 357.996 131.661 357.824 133.248 C 357.69 134.508 357.499 135.748 357.672 137.041 C 357.863 138.486 358.311 139.815 358.906 141.123 C 359.234 141.842 359.516 142.585 359.797 143.325 C 359.995 143.84 359.968 144.349 359.754 144.873 C 359.272 146.05 358.815 147.237 358.369 148.427 C 357.319 151.223 357.328 154.026 358.402 156.81 C 358.764 157.747 359.196 158.659 359.626 159.569 C 360.118 160.609 360.48 161.712 360.623 162.853 C 360.825 164.466 360.658 165.986 359.918 167.381 C 359.166 168.798 358.743 170.33 358.386 171.881 C 358.089 173.168 357.678 174.418 357.656 175.773 C 357.614 178.464 357.896 181.044 359.264 183.439 C 359.744 184.278 360.229 185.772 360.32 186.735 C 360.444 188.069 360.186 189.36 359.245 190.459 C 358.115 191.776 357.98 193.439 357.649 195.031 C 357.584 195.345 357.564 195.865 357.615 196.182 C 357.903 197.964 358.545 199.627 359.453 201.174 C 360.217 202.479 360.831 203.801 360.728 205.358 C 360.718 205.515 360.74 205.676 360.76 205.834 C 361.022 207.871 360.6 209.765 359.38 211.407 C 358.115 213.109 357.794 215.067 357.603 217.079 C 357.477 218.415 357.641 219.736 358.061 221.004 C 358.274 221.648 358.595 222.271 358.95 222.853 C 359.529 223.801 359.533 224.732 359.125 225.74 C 358.689 226.818 358.296 227.905 358.038 229.057 C 357.526 231.339 357.853 233.474 358.802 235.558 C 359.132 236.283 359.448 237.016 359.828 237.713 C 360.242 238.471 360.267 239.236 359.993 240.017 C 359.748 240.715 359.5 241.42 359.166 242.077 C 358.406 243.57 358.165 245.204 357.873 246.81 C 357.6 248.316 358.105 249.754 358.668 251.135 C 359.228 252.507 359.896 253.83 360.249 255.285 C 360.757 257.377 360.638 259.416 359.685 261.333 C 357.926 264.874 357.481 268.62 357.874 272.482 C 358.005 273.785 358.462 275.057 358.788 276.339 C 358.876 276.694 359.01 277.041 359.144 277.384 C 359.34 277.886 359.326 278.443 359.123 278.942 C 358.401 280.714 357.849 282.539 357.835 284.474 C 357.818 286.42 358.284 288.23 359.278 289.93 C 360.501 292.025 360.831 294.183 359.47 296.393 C 358.446 298.056 358.194 299.972 357.813 301.838 C 357.707 302.356 357.668 302.889 357.63 303.42 C 357.485 305.413 357.774 307.336 358.635 309.154 C 358.861 309.633 359.091 310.113 359.343 310.578 C 360.145 312.059 360.077 313.507 359.291 314.978 C 358.893 315.721 358.571 316.511 358.278 317.302 C 357.11 320.458 357.441 323.546 358.775 326.571 C 359.031 327.15 359.371 327.693 359.613 328.277 C 359.917 329.009 360.236 329.748 360.418 330.514 C 360.899 332.542 360.742 334.506 359.723 336.379 C 358.673 338.301 358.004 340.361 357.659 342.528 C 357.331 344.592 357.42 346.657 357.642 348.716 C 357.722 349.449 357.99 350.14 358.371 350.804 C 359.055 352 359.722 353.209 359.974 354.608 C 360.25 356.14 359.786 357.686 358.932 358.989 C 358.334 359.903 357.952 360.894 357.646 361.969 C 357.003 364.225 357.47 366.26 358.459 368.26 C 358.741 368.829 359.095 369.362 359.404 369.919 C 360.262 371.472 360.805 373.088 360.732 374.917 C 360.67 376.451 360.278 377.832 359.488 379.131 C 359.048 379.853 358.625 380.592 358.274 381.358 C 357.035 384.077 356.893 386.886 357.701 389.746 C 357.843 390.248 358.104 390.72 358.339 391.192 C 358.456 391.426 358.667 391.613 358.79 391.845 C 359.254 392.731 359.438 393.616 358.879 394.557 C 358.138 395.809 357.826 397.216 357.594 398.627 C 357.208 400.974 357.83 403.148 358.88 405.227 C 359 405.462 359.166 405.674 359.297 405.905 C 360.095 407.312 360.145 408.749 359.3 410.134 C 358.091 412.112 357.662 414.281 357.6 416.551 C 357.589 416.995 357.715 417.703 357.854 418.126 C 358.274 419.41 358.648 420.728 359.261 421.921 C 360.738 424.8 360.61 427.595 359.293 430.471 C 357.376 434.662 357.095 439.056 358.067 443.578 C 358.268 444.521 358.645 445.412 358.986 446.311 C 359.23 446.956 359.187 447.566 358.864 448.226 C 358.229 449.523 357.989 450.944 357.721 452.351 C 357.518 453.417 357.522 454.487 357.868 455.498 C 358.277 456.697 358.717 457.91 359.341 459.004 C 360.377 460.816 360.41 462.615 359.665 464.488 C 359.373 465.226 359.033 465.947 358.691 466.665 C 357.448 469.294 357.281 472.091 357.525 474.913 C 357.639 476.228 358.134 477.49 358.83 478.639 C 359.249 479.331 359.521 480.075 359.646 480.864 C 359.799 481.83 359.675 482.735 359.146 483.614 C 357.324 486.649 357.09 489.933 357.909 493.294 C 358.182 494.411 358.802 495.441 359.241 496.519 C 359.62 497.451 359.993 498.386 360.323 499.337 C 361.012 501.321 360.551 503.196 359.733 505.036 C 359.391 505.806 359.102 506.6 358.796 507.387 C 358.7 507.634 358.665 507.91 358.536 508.135 C 357.989 509.08 357.767 510.136 357.687 511.181 C 357.551 512.921 357.489 514.678 357.569 516.42 C 357.637 517.923 358.205 519.327 359.089 520.557 C 359.83 521.587 360.117 522.76 360.299 523.967 C 360.464 525.056 360.124 526.053 359.617 527.017 C 359.097 528.002 358.594 528.998 358.162 530.021 C 357.09 532.561 357.486 535.001 358.788 537.347 C 359.121 537.949 359.512 538.519 359.855 539.115 C 361.097 541.26 361.248 543.586 360.849 545.983 C 360.7 546.879 360.258 547.691 359.682 548.393 C 359.045 549.168 358.602 550.001 358.414 550.998 C 358.288 551.668 357.929 552.295 357.818 552.966 C 357.544 554.651 357.911 556.23 358.795 557.689 C 359.261 558.461 359.725 559.232 360.182 560.009 C 360.407 560.392 360.49 560.793 360.207 561.261 C 358.926 561.623 357.743 561.223 356.595 560.628 C 356.361 560.506 356.142 560.35 355.93 560.194 C 353.955 558.75 351.693 558.363 349.322 558.396 C 348.315 558.411 347.319 558.513 346.349 558.851 C 345.747 559.061 345.182 559.276 344.638 559.645 C 343.464 560.442 342.247 560.538 340.894 559.876 C 338.671 558.788 336.3 558.269 333.812 558.726 C 333.196 558.84 332.599 559.091 332.01 559.321 C 331.62 559.473 331.266 559.719 330.881 559.893 C 328.365 561.032 328.364 561.015 325.673 561.01 C 324.802 561.009 323.975 560.855 323.228 560.427 C 321.461 559.42 319.537 558.838 317.597 558.306 C 317.226 558.206 316.611 558.159 316.231 558.204 C 315.071 558.342 313.912 558.495 312.765 558.704 C 312.19 558.807 311.312 559.159 310.782 559.406 C 309.855 559.84 309.032 559.777 308.068 559.323 C 306.391 558.534 304.597 558.077 302.696 558.103 C 300.898 558.129 299.253 558.627 297.688 559.465 C 297.267 559.689 296.848 559.925 296.41 560.11 C 294.766 560.803 293.127 560.748 291.483 560.06 C 290.361 559.592 289.235 559.124 288.082 558.74 C 286.228 558.123 284.3 558.011 282.309 557.961 C 281.394 557.938 280.475 558.057 279.617 558.38 C 278.69 558.727 277.794 559.16 276.887 559.563 C 276.502 559.736 276.13 559.941 275.739 560.099 C 274.746 560.502 273.762 560.401 272.799 559.985 C 272.653 559.922 272.511 559.844 272.379 559.757 C 270.403 558.463 268.171 558.06 265.876 557.879 C 264.639 557.782 263.444 558.05 262.271 558.376 C 261.043 558.717 259.871 559.213 258.789 559.903 C 258.252 560.246 254.773 561.074 254.075 560.896 C 253.681 560.869 256.662 560.355 256.546 560.428 C 255.262 561.237 253.87 560.839 252.538 560.72 C 251.833 560.657 251.151 560.237 250.479 559.934 C 247.604 558.639 244.669 557.631 241.448 557.845 C 241.396 557.848 241.34 557.857 241.289 557.853 C 238.862 557.664 236.688 558.431 234.642 559.645 C 233.802 560.145 232.89 560.308 231.941 560.487 C 230.462 560.764 229.262 560.262 228.041 559.57 C 227.077 559.021 226.083 558.503 225.052 558.105 C 223.239 557.406 221.407 557.546 219.643 558.321 C 218.579 558.789 217.542 559.328 216.514 559.875 C 215.312 560.514 214.083 560.901 212.729 560.803 C 212.086 560.757 211.037 560.7 210.392 560.733 C 209.488 560.779 208.655 560.636 207.933 560.065 C 207.645 559.837 207.292 559.688 206.992 559.469 C 204.975 557.993 202.679 557.556 200.241 557.652 C 199.712 557.674 199.184 557.738 198.655 557.77 C 197.346 557.848 196.123 558.351 195.025 559.068 C 193.981 559.75 192.966 559.798 191.83 559.135 C 189.987 558.057 187.915 557.841 185.83 557.896 C 184.321 557.937 182.953 558.55 181.619 559.224 C 180.962 559.557 180.27 559.822 179.594 560.118 C 178.527 560.586 177.521 560.349 176.532 559.866 C 175.961 559.588 175.379 559.331 174.811 559.044 C 173.204 558.231 171.471 558.04 169.714 558.092 C 168.26 558.135 166.937 558.741 165.617 559.293 C 164.884 559.599 164.176 559.964 163.462 560.316 C 162.934 560.576 162.373 560.663 161.798 560.779 C 159.502 561.247 157.423 560.631 155.386 559.663 C 153.337 558.689 151.079 558.221 148.811 558.187 C 146.811 558.159 144.828 558.239 142.891 558.795 C 142.129 559.014 141.367 559.253 140.631 559.544 C 139.721 559.902 138.716 559.76 137.846 559.314 C 137.21 558.988 136.503 558.771 135.806 558.591 C 132.774 557.801 129.945 558.297 127.287 559.954 C 126.633 560.361 125.872 560.601 125.156 560.905 C 124.993 560.973 124.816 560.994 124.644 560.96 C 123.144 560.674 121.645 560.496 120.276 559.63 C 119.079 558.874 117.66 558.503 116.195 558.483 C 115.881 558.478 115.568 558.448 115.261 558.379 C 113.244 557.934 111.271 557.916 109.362 558.856 C 108.556 559.253 107.71 559.568 106.903 559.964 C 105.361 560.723 103.829 560.704 102.337 559.892 C 101.164 559.257 99.946 558.763 98.651 558.456 C 95.61 557.73 92.764 558.358 90.027 559.714 C 89.598 559.925 89.173 560.144 88.756 560.376 C 86.998 561.353 85.087 561.33 83.175 561.185 C 82.594 561.142 82.036 560.955 81.529 560.668 C 79.755 559.663 77.839 559.041 75.88 558.585 C 74.808 558.336 73.669 558.353 72.558 558.307 C 69.846 558.196 67.286 558.674 65.003 560.267 C 64.582 560.56 64.033 560.676 63.538 560.86 C 62.06 561.409 60.628 561.245 59.239 560.552 C 58.908 560.387 58.572 560.216 58.278 559.996 C 57.275 559.241 56.083 558.955 54.915 558.622 C 53.593 558.245 52.261 558.413 50.989 558.807 C 50.039 559.102 49.092 559.446 48.249 560.046 C 46.753 561.109 45.104 561.718 43.211 561.638 C 41.892 561.583 40.557 561.793 39.285 561.273 C 38.893 561.113 38.496 560.959 38.121 560.762 C 37.534 560.457 37.434 560.253 37.531 559.624 C 37.859 557.498 37.521 555.47 36.351 553.681 C 35.538 552.438 35.594 551.308 36.258 550.1 C 36.99 548.77 37.284 547.327 37.394 545.833 C 37.52 544.152 37.172 542.562 36.477 541.038 C 36.168 540.363 35.82 539.706 35.521 539.027 C 34.906 537.635 34.876 536.283 35.707 534.924 C 36.173 534.161 36.516 533.315 36.848 532.479 C 37.689 530.355 37.585 528.222 36.8 526.107 C 36.377 524.963 35.909 523.837 35.465 522.701 C 34.776 520.932 34.585 519.101 34.839 517.228 C 34.93 516.546 35.149 515.906 35.473 515.277 C 36.834 512.639 37.531 509.798 37.477 506.852 C 37.432 504.317 37.25 501.754 36 499.432 C 35.64 498.763 35.69 498.084 36.081 497.461 C 36.93 496.112 37.071 494.563 37.332 493.057 C 37.504 492.061 37.412 491.054 37.04 490.082 C 36.851 489.591 36.754 489.065 36.616 488.555 C 36.406 487.785 36.124 487.06 35.666 486.383 C 34.725 484.994 34.449 483.466 35.012 481.848 C 35.254 481.149 35.477 480.433 35.824 479.787 C 36.878 477.827 37.269 475.703 37.483 473.529 C 37.535 473.003 37.523 472.472 37.562 471.945 C 37.691 470.189 37.07 468.613 36.384 467.055 C 36.136 466.492 35.811 465.963 35.544 465.407 C 35.025 464.327 35.121 463.073 35.699 462.025 C 36.087 461.321 36.437 460.595 36.756 459.858 C 37.534 458.068 37.779 456.185 37.628 454.268 C 37.576 453.585 37.303 452.513 37.05 451.875 C 36.59 450.719 36.052 449.59 35.509 448.469 C 35.04 447.503 34.669 446.521 34.697 445.427 C 34.703 445.162 34.721 444.891 34.676 444.632 C 34.416 443.194 34.824 441.878 35.491 440.657 C 36.947 437.99 37.624 435.149 37.613 432.126 C 37.61 431.596 37.622 431.064 37.657 430.536 C 37.788 428.541 37.1 426.767 36.073 425.132 C 35.309 423.912 34.967 422.628 35.004 421.214 C 35.035 420.07 35.34 419.018 36.044 418.101 C 37.254 416.521 37.655 414.659 37.845 412.746 C 37.962 411.579 37.427 410.499 36.977 409.459 C 36.765 408.969 36.507 408.502 36.235 408.043 C 34.596 405.281 33.975 402.386 34.844 399.32 C 35.133 398.303 35.713 397.426 36.361 396.597 C 36.575 396.322 36.871 395.842 36.996 395.518 C 37.677 393.755 38.016 391.925 37.904 390.019 C 37.807 388.348 37.389 386.792 36.385 385.403 C 35.711 384.467 35.665 383.439 36.266 382.41 C 37.402 380.461 37.703 378.347 37.573 376.123 C 37.487 374.65 36.889 373.364 36.318 372.055 C 36.024 371.379 35.664 370.73 35.366 370.055 C 35.095 369.441 35.048 368.81 35.268 368.172 C 35.509 367.473 35.761 366.775 36.068 366.104 C 36.647 364.849 37.227 363.611 37.353 362.199 C 37.473 360.856 37.426 359.573 36.884 358.302 C 36.282 356.893 35.806 355.431 35.266 353.995 C 34.488 351.924 34.547 349.823 35.159 347.744 C 35.457 346.736 35.922 345.77 36.375 344.815 C 36.862 343.793 37.096 342.722 37.222 341.607 C 37.481 339.333 37.567 337.083 37.06 334.811 C 36.804 333.665 36.556 332.544 36.027 331.492 C 35.617 330.68 35.664 329.896 36.075 329.059 C 36.731 327.723 37.191 326.316 37.346 324.814 C 37.591 322.44 36.876 320.312 35.729 318.298 C 34.877 316.802 34.508 315.249 35.02 313.577 C 35.284 312.718 35.614 311.87 36.004 311.061 C 37.202 308.57 37.699 305.935 37.603 303.198 C 37.542 301.481 36.97 299.875 36.203 298.344 C 36.06 298.059 35.891 297.788 35.754 297.501 C 35.118 296.179 35.067 294.867 35.767 293.537 C 36.21 292.695 36.66 291.843 36.968 290.948 C 37.781 288.593 37.928 286.205 37.257 283.766 C 36.887 282.42 36.268 281.199 35.648 279.973 C 34.734 278.168 34.327 276.29 34.703 274.278 C 34.89 273.285 35.165 272.332 35.724 271.462 C 36.034 270.979 36.23 270.418 36.452 269.883 C 37.485 267.387 37.782 264.773 37.728 262.093 C 37.687 260.011 37.023 258.12 35.967 256.378 C 35.063 254.885 34.84 253.318 35.049 251.666 C 35.099 251.272 35.287 250.666 35.461 250.309 C 35.674 249.874 35.914 249.449 36.189 249.051 C 36.976 247.912 37.356 246.624 37.613 245.291 C 37.889 243.854 37.704 242.369 37.066 241.051 C 36.531 239.945 35.984 238.846 35.436 237.747 C 34.122 235.113 34.052 232.419 35.098 229.686 C 35.29 229.184 35.589 228.731 35.896 228.29 C 37.826 225.52 38.199 222.506 37.324 219.281 C 37.059 218.305 36.816 217.34 36.058 216.579 C 35.832 216.351 35.763 215.915 35.725 215.562 C 35.634 214.731 36.001 214.016 36.392 213.312 C 37.465 211.382 37.609 209.273 37.508 207.134 C 37.487 206.702 37.291 206.275 37.144 205.852 C 37.005 205.455 36.877 205.056 36.709 204.672 C 36.465 204.116 36.28 203.514 35.946 203.013 C 34.816 201.319 34.891 199.698 35.914 197.955 C 37.207 195.751 37.798 193.337 37.287 190.781 C 37.085 189.766 36.647 188.797 36.289 187.818 C 36.147 187.43 35.975 187.053 35.786 186.684 C 34.531 184.249 34.449 181.736 35.227 179.203 C 35.489 178.347 35.915 177.542 36.273 176.718 C 37.638 173.577 37.848 170.296 37.395 166.906 C 37.188 165.355 36.597 163.899 36.05 162.431 C 35.784 161.713 35.896 160.997 36.293 160.238 C 37.163 158.579 37.696 156.774 37.589 154.887 C 37.482 153.032 37.08 151.236 36.037 149.619 C 34.726 147.589 34.577 145.435 35.746 143.288 C 37.371 140.305 37.912 137.111 37.739 133.763 C 37.666 132.356 37.085 131.099 36.506 129.844 C 36.241 129.267 36.027 128.667 35.753 128.096 C 35.171 126.883 35.382 125.724 35.942 124.578 C 36.174 124.103 36.417 123.631 36.647 123.154 C 37.254 121.897 37.521 120.56 37.724 119.183 C 38.044 117.003 37.606 114.976 36.757 113 C 36.402 112.172 36.039 111.345 35.636 110.539 C 34.343 107.945 34.347 105.348 35.538 102.721 C 36.04 101.615 36.537 100.501 36.943 99.357 C 37.381 98.127 37.712 96.857 37.644 95.511 C 37.592 94.453 37.682 93.395 37.747 92.337 C 37.85 90.662 37.318 89.181 36.537 87.741 C 36.085 86.908 35.658 86.04 35.366 85.142 C 34.774 83.322 34.964 81.557 36.156 80.008 C 37.101 78.783 37.506 77.349 37.819 75.904 C 38.092 74.639 37.941 73.322 37.425 72.135 C 36.861 70.839 36.228 69.565 35.523 68.338 C 35.145 67.679 34.86 67.015 34.759 66.273 C 34.545 64.691 34.39 63.109 34.79 61.529 C 35 60.702 35.28 59.919 35.812 59.223 C 36.457 58.381 37.003 57.474 37.342 56.452 C 37.727 55.289 37.818 54.171 37.021 53.126 C 36.958 53.047 36.936 52.934 36.906 52.834 C 36.893 52.788 36.909 52.733 36.917 52.567"/>
    <rect x="353.931" y="56.997" width="0.595" height="497.546"/>
    <rect x="352.633" y="58.294" width="0.597" height="494.915"/>
    <rect x="351.337" y="59.59" width="0.595" height="492.862"/>
    <rect x="350.04" y="61.165" width="0.596" height="489.991"/>
    <rect x="42.069" y="554.451" width="312.457" height="0.595"/>
    <rect x="43.488" y="553.154" width="309.742" height="0.596"/>
    <rect x="44.353" y="551.857" width="307.485" height="0.595"/>
    <rect x="45.649" y="550.561" width="304.958" height="0.595"/>
    <rect x="41.747" y="56.997" width="0.595" height="498.049"/>
    <rect x="43.042" y="58.294" width="0.596" height="495.456"/>
    <rect x="44.34" y="59.601" width="0.595" height="492.851"/>
    <rect x="45.637" y="60.947" width="0.595" height="490.209"/>
    <rect x="41.941" y="56.996" width="312.466" height="0.597"/>
    <rect x="43.042" y="58.294" width="310.077" height="0.595"/>
    <rect x="44.341" y="59.59" width="307.59" height="0.595"/>
    <rect x="45.637" y="60.888" width="304.998" height="0.596"/>
  </g>
  <g fill="none" stroke="currentColor" vector-effect="non-scaling-stroke">
  </g>
</svg>
