<svg xmlns="http://www.w3.org/2000/svg" viewBox="0 0 432 648" role="img" aria-label="Ornement de couverture">
  <g fill="currentColor" stroke="none" fill-rule="evenodd">
    <path d="M 387.868 54.543 C 388.155 54.392 386.719 54.694 386.288 54.694 C 382.986 54.694 379.396 58.305 375.95 58.305 C 372.647 59.056 369.056 55.596 366.76 55.596 C 364.175 55.596 360.442 59.056 357.283 58.305 C 353.119 58.606 349.528 54.994 346.513 54.994 C 344.503 54.994 341.343 57.853 339.047 57.853 C 336.462 58.305 333.59 56.047 331.579 56.047 C 329.139 56.799 325.262 58.305 322.534 58.305 C 318.944 58.305 313.918 54.694 310.471 54.694 C 307.6 54.694 303.436 57.853 300.421 57.853 C 297.98 57.853 295.251 55.596 293.097 55.596 C 290.656 55.596 287.928 58.153 285.343 58.153 C 282.758 58.454 279.743 56.198 277.59 56.198 C 276.01 56.95 272.564 59.207 269.405 58.454 C 266.964 58.454 262.656 54.843 258.635 54.843 C 255.189 54.843 251.456 58.606 248.44 58.606 C 245.137 58.606 242.41 55.445 239.107 55.445 C 236.092 55.445 232.215 58.755 228.769 58.755 C 224.748 58.755 219.722 54.843 215.844 54.843 C 213.261 54.843 209.527 58.454 205.65 58.454 C 202.635 58.907 198.902 56.799 196.172 56.047 C 194.737 56.047 191.435 58.755 187.701 58.606 C 184.542 59.056 180.091 55.295 176.501 55.295 C 173.917 55.295 170.758 58.606 168.317 58.606 C 166.019 58.606 163.147 56.498 161.424 56.498 C 158.983 56.95 155.824 58.907 152.665 58.606 C 149.075 58.907 145.055 55.144 141.465 55.144 C 138.45 55.144 134.284 57.853 130.551 58.606 C 127.966 58.606 125.238 55.897 122.941 55.897 C 120.5 55.897 117.628 58.454 115.187 58.454 C 112.602 58.454 109.73 56.65 107.72 56.65 C 106.428 56.65 103.268 59.357 100.11 58.907 C 96.377 58.907 92.069 53.941 88.192 54.843 C 84.889 54.843 81.3 58.755 78.284 58.755 C 75.412 58.755 72.397 55.596 69.525 55.897 C 65.361 56.349 63.494 59.508 59.33 58.907 C 54.735 59.508 51.863 55.445 47.268 55.445 C 46.407 55.445 45.402 55.596 44.539 55.897 L 50.427 61.916 L 382.267 61.916 L 382.267 588.475 L 50.786 588.475 L 44.899 594.494 C 50.356 596.298 54.663 590.881 59.689 591.484 C 63.853 590.881 65.576 594.042 69.74 594.494 C 72.612 594.794 75.628 591.635 78.5 591.635 C 81.659 591.635 85.248 595.547 88.407 595.547 C 92.428 596.45 96.592 591.484 100.469 591.484 C 103.484 591.033 106.787 593.741 108.079 593.741 C 109.946 593.741 112.818 591.934 115.402 591.934 C 117.843 591.934 120.715 594.494 123.3 594.494 C 125.454 594.494 128.183 591.783 130.911 591.783 C 134.644 592.538 138.665 595.246 141.68 595.246 C 145.27 595.246 149.291 591.484 153.023 591.783 C 156.04 591.484 159.342 593.439 161.64 593.891 C 163.506 593.891 166.378 591.783 168.676 591.783 C 171.117 591.783 174.131 595.095 176.717 595.095 C 180.45 595.095 184.901 591.333 188.06 591.783 C 191.65 591.635 194.953 594.342 196.532 594.342 C 199.117 593.591 202.85 591.484 206.009 591.934 C 209.886 591.934 213.62 595.547 216.204 595.547 C 219.937 595.547 224.963 591.635 228.984 591.635 C 232.43 591.635 236.451 594.944 239.465 594.944 C 242.624 594.944 245.497 591.783 248.656 591.783 C 251.815 591.783 255.548 595.547 258.993 595.547 C 263.015 595.547 267.178 591.934 269.764 591.934 C 272.779 591.183 276.369 593.439 277.805 594.193 C 279.959 594.193 282.974 591.934 285.559 592.236 C 288.144 592.236 291.015 594.794 293.312 594.794 C 295.467 594.794 298.338 592.538 300.636 592.538 C 303.795 592.538 307.958 595.697 310.687 595.697 C 314.134 595.697 319.159 592.085 322.893 592.085 C 325.621 592.085 329.354 593.591 331.939 594.342 C 333.948 594.342 336.677 592.085 339.406 592.538 C 341.703 592.538 344.862 595.395 346.872 595.395 C 349.744 595.395 353.334 591.783 357.642 592.085 C 360.801 591.333 364.534 594.794 367.119 594.794 C 369.416 594.794 373.006 591.333 376.165 592.085 C 379.611 592.085 384.565 595.847 388.011 594.644 L 388.083 594.644 L 388.083 594.569 C 388.298 593.666 388.442 592.688 388.442 591.861 C 388.442 586.97 384.636 583.96 385.139 579.145 C 384.565 574.783 387.652 572.901 388.083 568.538 C 388.37 565.528 385.283 562.368 385.283 559.359 C 385.283 556.124 389.016 552.362 389.088 548.977 C 389.878 544.839 385.211 540.4 385.211 536.413 C 384.78 533.178 387.365 529.792 387.365 528.438 C 387.365 526.407 385.642 523.397 385.642 520.689 C 385.642 518.131 388.011 515.122 388.011 512.488 C 388.011 510.156 385.426 507.297 385.498 504.514 C 386.145 500.602 388.801 496.313 388.801 493.153 C 388.801 489.392 385.139 485.179 385.426 481.342 C 385.139 478.107 387.005 474.721 387.509 472.239 C 387.509 470.358 385.498 467.348 385.498 464.941 C 385.498 462.383 388.586 459.148 388.586 456.44 C 388.586 452.603 385.068 447.938 385.426 444.628 C 385.283 440.791 387.868 437.33 387.868 435.751 C 387.222 432.967 385.139 429.054 385.642 425.82 C 385.642 421.757 389.016 417.845 389.016 415.137 C 389.016 411.149 385.283 405.883 385.283 401.67 C 385.283 398.059 388.442 393.921 388.442 390.761 C 388.442 387.376 385.498 384.441 385.498 381.056 C 385.498 377.821 389.016 373.909 389.016 370.298 C 389.016 366.084 385.642 361.646 385.642 359.013 C 384.924 355.778 387.078 352.091 387.795 350.511 C 387.795 348.254 385.57 345.094 385.857 342.386 C 385.857 339.678 388.37 336.743 388.37 334.261 C 388.37 332.004 386.145 329.07 386.145 326.587 C 386.145 323.352 389.232 318.988 389.232 316.054 C 389.232 312.443 385.786 307.177 385.786 303.34 C 385.786 300.481 387.222 296.494 387.868 293.861 C 387.868 291.754 385.786 288.82 386.215 286.036 C 386.215 283.629 388.945 280.319 388.945 278.212 C 388.945 275.127 385.426 271.366 385.786 266.927 C 385.068 263.617 388.37 259.705 388.37 256.996 C 388.37 254.589 385.068 250.827 385.714 247.442 C 385.714 243.83 389.16 240.069 389.16 236.533 C 389.16 231.944 385.642 228.633 385.642 224.119 C 384.996 219.605 388.514 215.467 388.657 213.06 C 388.873 209.9 385.57 206.74 385.57 202.979 C 385.57 199.969 389.232 195.681 389.232 192.597 C 389.232 187.706 385.068 182.967 385.068 179.055 C 385.068 176.798 387.58 173.563 387.58 172.359 C 387.58 170.027 385.139 166.792 385.714 164.384 C 385.714 161.751 388.298 158.289 388.298 156.861 C 388.298 154.378 385.426 150.841 385.426 148.209 C 385.426 144.974 388.945 141.062 388.945 137.826 C 388.945 133.839 385.57 129.1 385.57 124.962 C 385.57 121.801 386.575 117.889 387.293 115.106 C 386.575 113.224 385.714 110.215 385.714 107.958 C 385.714 105.025 388.657 101.79 388.442 98.705 C 388.298 95.921 385.498 92.987 385.211 86.893 C 385.211 82.756 388.011 79.519 388.011 77.864 C 388.011 75.759 384.852 71.77 385.139 67.784 C 385.714 63.419 388.442 61.163 388.155 58.079 C 388.227 57.251 388.298 54.769 387.868 54.543"/>
    <path d="M 47.627 67.408 C 47.915 71.469 44.756 75.382 44.756 77.489 C 44.756 79.144 47.484 82.455 47.484 86.517 C 47.197 92.686 44.468 95.544 44.325 98.404 C 44.038 101.413 47.053 104.723 47.053 107.583 C 47.053 109.84 46.191 112.849 45.474 114.805 C 46.191 117.514 47.197 121.426 47.197 124.585 C 47.197 128.798 43.75 133.462 43.75 137.525 C 43.75 140.685 47.34 144.598 47.34 147.908 C 47.34 150.466 44.468 154.077 44.468 156.485 C 44.468 157.989 47.053 161.45 47.053 164.008 C 47.627 166.415 45.185 169.726 45.185 171.983 C 45.185 173.186 47.627 176.497 47.627 178.754 C 47.627 182.666 43.463 187.33 43.463 192.295 C 43.463 195.305 47.197 199.668 47.197 202.678 C 47.197 206.439 44.038 209.75 44.038 212.758 C 44.038 214.866 47.771 219.229 47.053 223.743 C 47.053 228.257 43.606 231.566 43.606 236.232 C 43.606 239.693 47.053 243.454 47.053 247.065 C 47.627 250.526 44.325 254.288 44.325 256.695 C 44.325 259.404 47.627 263.316 46.908 266.626 C 47.34 270.99 43.75 274.751 43.75 277.911 C 43.75 280.018 46.479 283.328 46.479 285.735 C 46.908 288.444 44.899 291.453 44.899 293.56 C 45.474 296.118 46.908 300.18 46.908 303.039 C 46.908 306.8 43.463 312.067 43.463 315.678 C 43.463 318.688 46.622 323.051 46.622 326.211 C 46.622 328.769 44.325 331.628 44.325 333.885 C 44.325 336.443 46.908 339.301 46.908 342.01 C 47.197 344.718 44.899 347.878 44.899 350.135 C 45.617 351.79 47.771 355.4 47.053 358.712 C 47.053 361.27 43.75 365.784 43.75 369.997 C 43.75 373.608 47.197 377.52 47.197 380.68 C 47.197 384.14 44.325 386.999 44.325 390.46 C 44.325 393.62 47.484 397.682 47.484 401.294 C 47.484 405.507 43.75 410.773 43.75 414.835 C 43.75 417.544 47.053 421.456 47.053 425.519 C 47.627 428.679 45.474 432.591 44.899 435.45 C 44.899 436.954 47.484 440.415 47.34 444.327 C 47.627 447.637 44.181 452.302 44.181 456.064 C 44.181 458.772 47.197 462.082 47.197 464.64 C 47.197 467.048 45.185 470.057 45.185 471.862 C 45.761 474.419 47.627 477.73 47.34 481.041 C 47.627 484.803 43.894 489.016 43.894 492.777 C 43.894 495.937 46.622 500.301 47.197 504.213 C 47.34 506.921 44.756 509.78 44.756 512.188 C 44.756 514.745 47.053 517.755 47.053 520.313 C 47.053 523.021 45.33 526.03 45.33 528.137 C 45.33 529.491 47.915 532.801 47.484 536.112 C 47.484 540.024 42.889 544.538 43.606 548.6 C 43.75 552.061 47.484 555.823 47.484 558.983 C 47.484 561.993 44.325 565.152 44.612 568.161 C 45.043 572.526 48.202 574.481 47.627 578.843 C 48.058 583.66 43.535 587.572 44.325 591.484 L 44.899 594.494 L 50.786 588.475 L 50.571 61.991 L 44.684 55.897 C 44.396 55.596 44.539 57.176 44.612 57.778 C 44.325 60.787 47.053 63.044 47.627 67.408"/>
  </g>
  <g fill="none" stroke="currentColor" vector-effect="non-scaling-stroke">
    <path d="M 387.869 54.52 C 388.156 54.369 386.72 54.671 386.29 54.671 C 382.987 54.671 379.398 58.282 375.951 58.282 C 372.648 59.034 369.057 55.574 366.762 55.574 C 364.176 55.574 360.443 59.034 357.284 58.282 C 353.12 58.583 349.529 54.972 346.514 54.972 C 344.504 54.972 341.344 57.831 339.048 57.831 C 336.463 58.282 333.591 56.024 331.58 56.024 C 329.14 56.776 325.263 58.282 322.535 58.282 C 318.945 58.282 313.919 54.671 310.471 54.671 C 307.601 54.671 303.437 57.831 300.422 57.831 C 297.981 57.831 295.251 55.574 293.097 55.574 C 290.657 55.574 287.929 58.131 285.344 58.131 C 282.759 58.432 279.743 56.175 277.59 56.175 C 276.011 56.928 272.564 59.185 269.406 58.432 C 266.964 58.432 262.656 54.82 258.636 54.82 C 255.189 54.82 251.456 58.583 248.441 58.583 C 245.137 58.583 242.41 55.422 239.108 55.422 C 236.092 55.422 232.216 58.733 228.769 58.733 C 224.748 58.733 219.722 54.82 215.844 54.82 C 213.261 54.82 209.527 58.432 205.65 58.432 C 202.635 58.884 198.902 56.776 196.172 56.024 C 194.737 56.024 191.435 58.733 187.701 58.583 C 184.542 59.034 180.091 55.273 176.501 55.273 C 173.917 55.273 170.757 58.583 168.317 58.583 C 166.019 58.583 163.146 56.475 161.423 56.475 C 158.983 56.928 155.824 58.884 152.664 58.583 C 149.074 58.884 145.054 55.121 141.464 55.121 C 138.45 55.121 134.283 57.831 130.552 58.583 C 127.967 58.583 125.238 55.875 122.942 55.875 C 120.5 55.875 117.628 58.432 115.187 58.432 C 112.602 58.432 109.73 56.627 107.721 56.627 C 106.428 56.627 103.268 59.335 100.111 58.884 C 96.376 58.884 92.069 53.918 88.192 54.82 C 84.889 54.82 81.3 58.733 78.284 58.733 C 75.412 58.733 72.396 55.574 69.524 55.875 C 65.361 56.326 63.494 59.486 59.329 58.884 C 54.735 59.486 51.863 55.422 47.268 55.422 C 46.406 55.422 45.401 55.574 44.538 55.875 L 50.427 61.893 L 382.268 61.893 L 382.268 588.472 L 50.786 588.472 L 44.899 594.491 C 50.355 596.296 54.663 590.878 59.689 591.48 C 63.852 590.878 65.576 594.039 69.74 594.491 C 72.612 594.791 75.628 591.632 78.499 591.632 C 81.658 591.632 85.248 595.544 88.408 595.544 C 92.427 596.446 96.592 591.48 100.469 591.48 C 103.484 591.03 106.788 593.738 108.079 593.738 C 109.946 593.738 112.818 591.932 115.402 591.932 C 117.843 591.932 120.715 594.491 123.3 594.491 C 125.454 594.491 128.183 591.78 130.91 591.78 C 134.644 592.535 138.665 595.243 141.679 595.243 C 145.269 595.243 149.29 591.48 153.023 591.78 C 156.039 591.48 159.342 593.436 161.64 593.887 C 163.506 593.887 166.378 591.78 168.676 591.78 C 171.117 591.78 174.131 595.093 176.716 595.093 C 180.45 595.093 184.901 591.33 188.06 591.78 C 191.65 591.632 194.953 594.339 196.532 594.339 C 199.117 593.587 202.85 591.48 206.009 591.932 C 209.886 591.932 213.62 595.544 216.204 595.544 C 219.937 595.544 224.963 591.632 228.984 591.632 C 232.43 591.632 236.451 594.941 239.465 594.941 C 242.624 594.941 245.497 591.78 248.657 591.78 C 251.815 591.78 255.549 595.544 258.993 595.544 C 263.016 595.544 267.178 591.932 269.764 591.932 C 272.78 591.18 276.369 593.436 277.805 594.19 C 279.959 594.19 282.975 591.932 285.56 592.233 C 288.144 592.233 291.016 594.791 293.312 594.791 C 295.467 594.791 298.338 592.535 300.637 592.535 C 303.796 592.535 307.959 595.694 310.688 595.694 C 314.135 595.694 319.16 592.082 322.893 592.082 C 325.622 592.082 329.355 593.587 331.939 594.339 C 333.949 594.339 336.678 592.082 339.407 592.535 C 341.704 592.535 344.863 595.392 346.873 595.392 C 349.745 595.392 353.335 591.78 357.643 592.082 C 360.802 591.33 364.535 594.791 367.12 594.791 C 369.417 594.791 373.007 591.33 376.166 592.082 C 379.613 592.082 384.566 595.844 388.012 594.641 L 388.084 594.641 L 388.084 594.566 C 388.299 593.663 388.444 592.684 388.444 591.857 C 388.444 586.967 384.638 583.957 385.14 579.142 C 384.566 574.779 387.653 572.897 388.084 568.534 C 388.371 565.525 385.284 562.363 385.284 559.356 C 385.284 556.12 389.017 552.358 389.089 548.973 C 389.88 544.835 385.212 540.396 385.212 536.409 C 384.781 533.174 387.366 529.787 387.366 528.433 C 387.366 526.402 385.643 523.392 385.643 520.683 C 385.643 518.126 388.012 515.117 388.012 512.483 C 388.012 510.151 385.427 507.291 385.499 504.508 C 386.146 500.596 388.802 496.307 388.802 493.147 C 388.802 489.386 385.14 485.172 385.427 481.335 C 385.14 478.101 387.007 474.714 387.511 472.232 C 387.511 470.351 385.499 467.34 385.499 464.934 C 385.499 462.376 388.587 459.141 388.587 456.432 C 388.587 452.595 385.07 447.93 385.427 444.619 C 385.284 440.783 387.869 437.322 387.869 435.742 C 387.224 432.959 385.14 429.045 385.643 425.811 C 385.643 421.748 389.017 417.835 389.017 415.128 C 389.017 411.139 385.284 405.873 385.284 401.66 C 385.284 398.049 388.444 393.91 388.444 390.75 C 388.444 387.365 385.499 384.431 385.499 381.046 C 385.499 377.811 389.017 373.898 389.017 370.287 C 389.017 366.073 385.643 361.634 385.643 359.001 C 384.925 355.765 387.079 352.079 387.796 350.499 C 387.796 348.242 385.572 345.082 385.858 342.374 C 385.858 339.666 388.371 336.731 388.371 334.248 C 388.371 331.992 386.146 329.057 386.146 326.575 C 386.146 323.34 389.233 318.975 389.233 316.041 C 389.233 312.43 385.788 307.163 385.788 303.326 C 385.788 300.467 387.224 296.48 387.869 293.847 C 387.869 291.74 385.788 288.806 386.216 286.022 C 386.216 283.615 388.947 280.304 388.947 278.198 C 388.947 275.112 385.427 271.351 385.788 266.912 C 385.07 263.602 388.371 259.69 388.371 256.98 C 388.371 254.574 385.07 250.812 385.715 247.426 C 385.715 243.814 389.162 240.052 389.162 236.517 C 389.162 231.927 385.643 228.617 385.643 224.102 C 384.997 219.588 388.515 215.45 388.659 213.043 C 388.875 209.883 385.572 206.723 385.572 202.962 C 385.572 199.951 389.233 195.663 389.233 192.579 C 389.233 187.688 385.07 182.948 385.07 179.037 C 385.07 176.78 387.581 173.545 387.581 172.34 C 387.581 170.008 385.14 166.773 385.715 164.365 C 385.715 161.732 388.299 158.27 388.299 156.842 C 388.299 154.359 385.427 150.822 385.427 148.19 C 385.427 144.954 388.947 141.042 388.947 137.806 C 388.947 133.819 385.572 129.079 385.572 124.942 C 385.572 121.78 386.576 117.868 387.294 115.085 C 386.576 113.203 385.715 110.194 385.715 107.937 C 385.715 105.004 388.659 101.768 388.444 98.684 C 388.299 95.9 385.499 92.966 385.212 86.872 C 385.212 82.733 388.012 79.497 388.012 77.842 C 388.012 75.736 384.854 71.748 385.14 67.762 C 385.715 63.397 388.444 61.141 388.156 58.056 C 388.229 57.229 388.299 54.745 387.869 54.52 Z" stroke-width="0.215"/>
    <path d="M 47.627 67.386 C 47.915 71.448 44.755 75.36 44.755 77.467 C 44.755 79.123 47.484 82.433 47.484 86.496 C 47.196 92.665 44.468 95.523 44.324 98.384 C 44.037 101.392 47.053 104.702 47.053 107.562 C 47.053 109.819 46.191 112.828 45.473 114.784 C 46.191 117.494 47.196 121.406 47.196 124.565 C 47.196 128.778 43.75 133.442 43.75 137.505 C 43.75 140.666 47.34 144.579 47.34 147.889 C 47.34 150.447 44.468 154.058 44.468 156.466 C 44.468 157.97 47.053 161.431 47.053 163.99 C 47.627 166.396 45.185 169.708 45.185 171.965 C 45.185 173.168 47.627 176.479 47.627 178.736 C 47.627 182.649 43.463 187.312 43.463 192.277 C 43.463 195.287 47.196 199.651 47.196 202.661 C 47.196 206.422 44.037 209.734 44.037 212.741 C 44.037 214.849 47.771 219.213 47.053 223.727 C 47.053 228.241 43.605 231.55 43.605 236.217 C 43.605 239.678 47.053 243.439 47.053 247.049 C 47.627 250.511 44.324 254.273 44.324 256.68 C 44.324 259.389 47.627 263.302 46.908 266.611 C 47.34 270.975 43.75 274.736 43.75 277.897 C 43.75 280.004 46.478 283.314 46.478 285.721 C 46.908 288.43 44.899 291.439 44.899 293.546 C 45.473 296.104 46.908 300.167 46.908 303.025 C 46.908 306.787 43.463 312.054 43.463 315.665 C 43.463 318.675 46.622 323.039 46.622 326.199 C 46.622 328.757 44.324 331.616 44.324 333.874 C 44.324 336.431 46.908 339.289 46.908 341.999 C 47.196 344.706 44.899 347.867 44.899 350.124 C 45.617 351.779 47.771 355.389 47.053 358.701 C 47.053 361.26 43.75 365.773 43.75 369.987 C 43.75 373.597 47.196 377.51 47.196 380.67 C 47.196 384.13 44.324 386.989 44.324 390.45 C 44.324 393.611 47.484 397.673 47.484 401.284 C 47.484 405.498 43.75 410.764 43.75 414.826 C 43.75 417.535 47.053 421.447 47.053 425.511 C 47.627 428.671 45.473 432.583 44.899 435.442 C 44.899 436.946 47.484 440.407 47.34 444.32 C 47.627 447.629 44.181 452.294 44.181 456.056 C 44.181 458.765 47.196 462.075 47.196 464.633 C 47.196 467.042 45.185 470.05 45.185 471.855 C 45.76 474.412 47.627 477.724 47.34 481.035 C 47.627 484.797 43.894 489.01 43.894 492.771 C 43.894 495.931 46.622 500.295 47.196 504.208 C 47.34 506.916 44.755 509.775 44.755 512.182 C 44.755 514.74 47.053 517.751 47.053 520.309 C 47.053 523.016 45.33 526.025 45.33 528.133 C 45.33 529.486 47.915 532.797 47.484 536.108 C 47.484 540.02 42.888 544.535 43.605 548.597 C 43.75 552.058 47.484 555.82 47.484 558.98 C 47.484 561.989 44.324 565.149 44.612 568.159 C 45.042 572.523 48.202 574.479 47.627 578.841 C 48.058 583.656 43.535 587.569 44.324 591.482 L 44.899 594.491 L 50.787 588.472 L 50.571 61.969 L 44.684 55.875 C 44.396 55.574 44.539 57.154 44.612 57.756 C 44.324 60.765 47.053 63.022 47.627 67.386 Z" stroke-width="0.215"/>
    <rect x="50.715" y="61.967" width="331.724" height="526.495" stroke-width="0.718"/>
    <rect x="52.15" y="63.472" width="328.827" height="523.493" stroke-width="0.502"/>
    <rect x="53.586" y="64.976" width="325.955" height="520.486" stroke-width="0.502"/>
    <rect x="55.021" y="66.482" width="323.083" height="517.475" stroke-width="0.359"/>
    <rect x="56.457" y="67.987" width="320.211" height="514.465" stroke-width="0.287"/>
  </g>
</svg>
